<?xml version="1.0" encoding="UTF-8" standalone="yes"?><svg xmlns:dc="http://purl.org/dc/elements/1.1/" xmlns:cc="http://creativecommons.org/ns#" xmlns:rdf="http://www.w3.org/1999/02/22-rdf-syntax-ns#" xmlns:svg="http://www.w3.org/2000/svg" xmlns="http://www.w3.org/2000/svg" height="712.73334" cursor="default" id="svg2" xml:space="preserve" width="1145.3333" version="1.1" viewBox="0 0 1145.3333 712.73334" style="zoom: 1;"><defs id="defs6"><linearGradient xmlns="http://www.w3.org/2000/svg" id="paramFill" param="color"><stop stop-color="#ffffff"></stop></linearGradient></defs><g id="logo" transform="matrix(1.3333333,0,0,-1.3333333,0,712.73333)"><g id="g12" transform="scale(0.1)"><path d="M1689.01001,2284.929688 c-66.36,0.51 -127.75,-15.35 -184.16,-47.51 c-56.41,-32.19 -101.44,-77.66 -135.07,-136.39 c-33.65,-58.73 -50.72,-121 -51.23,-186.79 c-0.5,-65.24 15.75,-127.77 48.74,-187.58 c33.01,-59.82 77.61,-106.54 133.78,-140.16 c56.19,-33.63 116.62,-50.69 181.28,-51.18 c65.24,-0.51 127.19,15.46 185.87,47.92 c58.67,32.44 103.97,76.63 135.89,132.52 c31.92,55.91 48.15,119.05 48.69,189.38 c0.83,107.21 -33.79,197.11 -103.84,269.71 c-70.06,72.57 -156.71,109.27 -259.95,110.08  z m477.31,87.45 l-7.18,-926.79 l-117.56,0.91 l1.24,159.28 c-50.45,-60.38 -106.87,-105.65 -169.3,-135.84 c-62.42,-30.18 -130.55,-44.99 -204.37,-44.42 c-131.18,1.02 -242.83,49.44 -334.94,145.29 c-92.11,95.84 -137.64,211.91 -136.58,348.21 c1.03,133.42 48.77,247.22 143.2,341.33 c94.43,94.12 207.52,140.66 339.28,139.64 c76.09,-0.59 144.82,-17.3 206.19,-50.15 c61.37,-32.85 115.08,-81.83 161.14,-146.92 l1.32,170.36 l117.56,-0.9 " id="path14" style="fill:url(#paramFill);fill-opacity:1;fill-rule:nonzero;stroke:none"></path><path d="M2538.459961,2376.129639 h119.25 v-432.75 c0,-105.62 5.69,-178.33 17.08,-218.06 c17.06,-56.8 49.61,-101.67 97.67,-134.6 c48.05,-32.94 105.35,-49.41 171.91,-49.41 c66.53,0 122.98,16.04 169.34,48.13 c46.35,32.08 78.34,74.24 95.98,126.5 c11.95,35.78 17.91,111.59 17.91,227.44 v432.75 h121.81 v-454.9 c0,-127.77 -14.9,-224.03 -44.7,-288.77 c-29.83,-64.74 -74.69,-115.43 -134.6,-152.06 c-59.92,-36.63 -135.02,-54.95 -225.32,-54.95 c-90.3,0 -165.69,18.32 -226.16,54.95 c-60.49,36.63 -105.63,87.75 -135.45,153.33 c-29.82,65.6 -44.72,164.26 -44.72,296.02 v446.38 " id="path16" style="fill: url(#paramFill);fill-opacity:1;fill-rule:nonzero;stroke:none"></path><path d="M5681.720215,2284.979736 c-66.37,0 -127.64,-16.32 -183.79,-48.93 c-56.17,-32.63 -100.84,-78.44 -134.02,-137.43 c-33.19,-58.99 -49.77,-121.39 -49.77,-187.18 c0,-65.25 16.73,-127.65 50.2,-187.2 c33.45,-59.56 78.41,-105.94 134.85,-139.12 c56.44,-33.18 117,-49.77 181.68,-49.77 c65.22,0 127.05,16.45 185.49,49.35 c58.42,32.9 103.37,77.43 134.85,133.58 c31.49,56.16 47.23,119.41 47.23,189.75 c0,107.21 -35.31,196.84 -105.94,268.89 c-70.62,72.03 -157.55,108.06 -260.78,108.06  z m476.61,91.15 v-926.82 h-117.56 v159.3 c-49.98,-60.77 -106.05,-106.49 -168.24,-137.15 c-62.19,-30.68 -130.2,-46.01 -204.01,-46.01 c-131.2,0 -243.21,47.56 -336.06,142.7 c-92.85,95.11 -139.28,210.83 -139.28,347.13 c0,133.43 46.85,247.59 140.55,342.44 c93.71,94.83 206.44,142.26 338.19,142.26 c76.1,0 144.95,-16.19 206.58,-48.56 c61.61,-32.37 115.7,-80.93 162.27,-145.66 v170.37 h117.56 " id="path18" style="fill:url(#paramFill);fill-opacity:1;fill-rule:nonzero;stroke:none"></path><path d="M6493.75,2376.129639 h143.12 l246.5,-339.06 l243.91,339.06 h143.36 l-315.46,-437.83 l355.5,-488.99 h-145.25 l-282.1,389.26 l-280.47,-389.26 h-142.33 l351.15,488.12 l-317.93,438.7 " id="path20" style="fill:url(#paramFill);fill-opacity:1;fill-rule:nonzero;stroke:none"></path><path d="M4138.930176,1006.049744 c-23.08,0.09 -42.28,-7.991 -57.6,-24.241 c-15.32,-16.25 -23.03,-37.141 -23.13,-62.649 c-0.1,-25.699 7.58,-46.871 23.04,-63.5 c15.46,-16.648 34.55,-25.019 57.26,-25.109 c23.42,-0.102 42.89,7.98 58.39,24.238 c15.5,16.242 23.31,37.59 23.41,64.012 c0.1,25.867 -7.54,46.871 -22.91,62.961 c-15.38,16.09 -34.86,24.188 -58.46,24.288  z m79.13,175.73 l74.63,-0.29 l-1.64,-412.228 l-74.62,0.289 l0.12,31.437 c-14.62,-13.789 -29.26,-23.707 -43.93,-29.758 c-14.68,-6.039 -30.58,-9.039 -47.69,-8.968 c-38.4,0.156 -71.56,15.179 -99.48,45.09 c-27.91,29.91 -41.78,67 -41.6,111.289 c0.18,45.91 13.88,83.499 41.13,112.739 c27.23,29.23 60.23,43.76 98.99,43.61 c17.85,-0.06 34.58,-3.5 50.2,-10.31 c15.64,-6.81 30.08,-16.98 43.3,-30.52 l0.59,147.62 " id="path22" style="fill:url(#paramFill);fill-opacity:1;fill-rule:nonzero;stroke:none"></path><path d="M4646.77002,1074.789917 h74.63 v-30.49 c16.92,14.27 32.25,24.19 45.98,29.77 c13.74,5.58 27.81,8.36 42.18,8.36 c29.48,0 54.5,-10.29 75.07,-30.88 c17.28,-17.49 25.93,-43.37 25.93,-77.64 V777.37085 h-73.8 v130.238 c0,35.5 -1.6,59.063 -4.79,70.711 c-3.18,11.649 -8.72,20.532 -16.63,26.621 c-7.91,6.109 -17.68,9.159 -29.31,9.159 c-15.09,0 -28.04,-5.05 -38.86,-15.159 c-10.82,-10.101 -18.32,-24.07 -22.5,-41.921 c-2.19,-9.27 -3.27,-29.391 -3.27,-60.329 v-119.32 h-74.63 v297.419 " id="path24" style="fill:url(#paramFill);fill-opacity:1;fill-rule:nonzero;stroke:none"></path><path d="M5273.97998,1067.289795 h74.63 V769.870728 h-74.63  z m37.32,122.46 c13.08,0 24.31,-4.74 33.66,-14.22 c9.36,-9.47 14.04,-20.96 14.04,-34.44 c0,-13.3 -4.63,-24.65 -13.9,-34.04 c-9.27,-9.38 -20.35,-14.07 -33.25,-14.07 c-13.27,0 -24.58,4.79 -33.94,14.35 c-9.37,9.57 -14.04,21.19 -14.04,34.85 c0,13.13 4.64,24.34 13.9,33.62 c9.27,9.3 20.44,13.95 33.53,13.95 " id="path26" style="fill:url(#paramFill);fill-opacity:1;fill-rule:nonzero;stroke:none"></path><path d="M5872.25,1008.969727 c-23.52,0.12 -43.06,-7.8 -58.63,-23.759 c-15.56,-15.961 -23.41,-36.891 -23.54,-62.762 c-0.14,-26.418 7.5,-47.84 22.91,-64.211 c15.4,-16.398 34.86,-24.648 58.38,-24.769 c22.77,-0.117 41.99,8.082 57.66,24.59 c15.66,16.492 23.56,37.601 23.68,63.3 c0.14,25.512 -7.42,46.469 -22.63,62.852 c-15.24,16.389 -34.51,24.639 -57.83,24.759  z m-78.15,61.63 l-0.16,-32.81 c13.55,13.41 28.17,23.45 43.89,30.12 c15.7,6.66 32.48,9.95 50.34,9.87 c38.82,-0.2 71.72,-15.03 98.73,-44.51 c27.02,-29.48 40.4,-67.18 40.17,-113.102 c-0.22,-44.289 -14.44,-81.258 -42.66,-110.906 c-28.21,-29.66 -61.55,-44.391 -100,-44.203 c-17.12,0.089 -33.05,3.222 -47.78,9.41 c-14.74,6.172 -29.35,16.23 -43.87,30.14 l3,-276.05 l-74.08,0.371 l-1.66,542.04 l74.08,-0.37 " id="path28" style="fill:url(#paramFill);fill-opacity:1;fill-rule:nonzero;stroke:none"></path><path d="M6347.410156,1067.289795 h63.98 v-37.45 c6.92,14.75 16.12,25.96 27.6,33.62 c11.48,7.65 24.06,11.47 37.73,11.47 c9.66,0 19.76,-2.54 30.34,-7.64 l-23.23,-64.25 c-8.75,4.38 -15.96,6.56 -21.6,6.56 c-11.49,0 -21.19,-7.11 -29.11,-21.319 c-7.93,-14.211 -11.9,-42.101 -11.9,-83.652 l0.27,-14.481 V769.870728 h-74.08 v297.419 " id="path30" style="fill:url(#paramFill);fill-opacity:1;fill-rule:nonzero;stroke:none"></path><path d="M6900.029785,977.030762 c14.57,15.239 32.33,22.649 54.31,22.649 c22.51,0 40.45,-7.309 54.84,-22.371 c14.26,-14.911 21.48,-34.668 21.48,-58.731 c0,-24.066 -7.36,-43.969 -21.89,-59.137 c-14.67,-15.339 -32.56,-22.8 -54.71,-22.8 c-22.15,0 -39.9,7.371 -54.29,22.507 c-14.26,14.981 -21.49,34.981 -21.49,59.43 c0,23.692 7.32,43.363 21.75,58.453  z m228.89,-106.222 c-7.2,6.261 -12.31,12.66 -15.87,17.941 c1.82,9.828 2.78,19.859 2.78,30.102 c0,10.308 -0.97,20.41 -2.83,30.277 c3.6,5.23 8.7,11.5 15.84,17.621 c6.87,5.891 4.73,17.16 4.42,18.629 l0.03,0.012 c0,0 -0.05,0.109 -0.06,0.14 c-0.01,0.028 -0.03,0.149 -0.03,0.149 l-0.03,-0.008 c-0.6,1.379 -5.41,11.789 -14.42,12.578 c-12.54,1.078 -22.36,4.51 -28.5,7.2 c-5.77,9.04 -12.25,17.46 -19.65,25.06 c-0.54,6.7 -0.52,16.62 2.24,28.21 c2.09,8.81 -6.25,16.67 -7.37,17.68 l0.02,0.03 c0,0 -0.11,0.06 -0.14,0.08 c-0.02,0.02 -0.11,0.09 -0.11,0.09 l-0.02,-0.02 c-1.29,0.77 -11.3,6.35 -19.05,1.69 c-11.85,-7.12 -22.78,-10.09 -29.18,-11.32 c-10.82,4.59 -21.96,7.98 -33.39,10.12 c-4.37,5.09 -10.15,13.02 -14.74,23.84 c-3.53,8.32 -14.91,9.68 -16.42,9.83 v0.02 c0,0 -0.12,0 -0.15,-0.01 c-0.02,0.01 -0.14,0.01 -0.14,0.01 v-0.02 c-1.51,-0.17 -12.88,-1.62 -16.36,-9.98 c-4.58,-10.99 -10.4,-19.03 -14.76,-24.14 c-10.72,-2.2 -21.04,-5.59 -31.01,-10.05 c-5.8,0.91 -17.99,3.66 -31.37,11.7 c-7.74,4.66 -17.75,-0.92 -19.05,-1.69 l-0.02,0.02 c0,0 -0.09,-0.07 -0.11,-0.09 c-0.03,-0.02 -0.13,-0.08 -0.13,-0.08 l0.02,-0.03 c-1.13,-1.01 -9.48,-8.87 -7.38,-17.68 c3.68,-15.46 2.51,-28.12 1.63,-33.79 c-4.65,-5.22 -8.78,-10.69 -12.61,-16.29 c-2.47,-1.47 -15.56,-8.71 -34.94,-10.39 c-9,-0.789 -13.8,-11.199 -14.41,-12.578 l-0.03,0.008 c0,0 -0.03,-0.121 -0.03,-0.149 c-0.01,-0.031 -0.07,-0.14 -0.07,-0.14 l0.04,-0.012 c-0.32,-1.469 -2.45,-12.738 4.43,-18.629 c10.3,-8.84 16.57,-18.129 19.81,-23.852 c-1.11,-7.98 -1.87,-16.128 -1.87,-24.597 c0,-8.012 0.68,-15.75 1.7,-23.371 c-3.17,-5.711 -9.36,-15.121 -19.72,-24.121 c-6.83,-5.918 -4.6,-17.161 -4.28,-18.641 l-0.03,-0.008 c0,0 0.05,-0.121 0.06,-0.14 c0.01,-0.02 0.04,-0.141 0.04,-0.141 l0.03,0.012 c0.61,-1.391 5.51,-11.762 14.53,-12.481 c16.42,-1.32 28.39,-6.672 33.2,-9.172 c4.15,-6.32 8.91,-12.359 14.07,-18.218 c0.91,-5.891 2,-18.168 -1.48,-33.192 c-2.04,-8.808 6.37,-16.59 7.5,-17.598 l-0.02,-0.019 c0,0 0.11,-0.063 0.14,-0.07 c0.02,-0.02 0.11,-0.102 0.11,-0.102 l0.01,0.02 c1.31,-0.75 11.37,-6.258 19.1,-1.547 c11.77,7.179 22.67,10.238 29.07,11.527 c6.79,-3.09 13.76,-5.699 20.97,-7.758 c4.44,-4.711 11.6,-13.57 17.05,-26.41 c3.52,-8.32 14.9,-9.68 16.4,-9.832 v-0.027 c0,0 0.13,0.008 0.16,0.019 c0.02,-0.011 0.15,-0.019 0.15,-0.019 v0.027 c1.5,0.172 12.88,1.621 16.35,9.973 c3.77,9.066 8.4,16.097 12.37,21.187 c16.75,1.711 32.73,5.821 47.8,12.301 c6.54,-1.512 16.25,-4.59 26.73,-10.988 c7.72,-4.711 17.78,0.797 19.09,1.547 l0.02,-0.02 c0,0 0.09,0.082 0.11,0.102 c0.03,0.007 0.13,0.07 0.13,0.07 l-0.02,0.019 c1.14,1.008 9.54,8.79 7.5,17.598 c-2.56,11.09 -2.63,20.66 -2.13,27.332 c7.69,8.02 14.48,16.981 20.47,26.692 c6.21,2.57 15.63,5.609 27.45,6.558 c9.03,0.719 13.92,11.09 14.54,12.481 l0.03,-0.012 c0,0 0.02,0.121 0.03,0.141 c0.01,0.019 0.06,0.14 0.06,0.14 l-0.03,0.008 c0.33,1.48 2.55,12.723 -4.27,18.641 " id="path32" style="fill:url(#paramFill);fill-opacity:1;fill-rule:nonzero;stroke:none"></path><path d="M6872.5,3640.759766 c-687.32,0 -1304.6,-408.18 -1573.88,-1040.29 c-1.15,-2.71 -1.65,-5.65 -2.71,-8.39 c-18.41,-47.15 -17.16,-74.65 -17.16,-74.65 h101.25 l9.56,39.33 c0.69,2.84 1.62,5.64 2.78,8.33 c254.39,592.97 834.42,975.67 1480.16,975.67 c887.75,0 1610,-722.24 1610,-1610 c0,-887.75 -722.25,-1609.998 -1610,-1609.998 c-319.28,0 -627.82,93.258 -892.28,269.66 l-8.39,-12.582 l8.17,12.301 l-56.87,35 l1.66,-117.821 l-0.05,-0.082 c0.02,-0.008 0.04,-0.019 0.05,-0.039 v-0.187 l0.09,0.129 c280.9,-187.34 608.59,-286.379 947.62,-286.379 c942.9,0 1710,767.097 1710,1709.998 c0,942.9 -767.1,1710 -1710,1710 " id="path34" style="fill:url(#paramFill);fill-opacity:1;fill-rule:nonzero;stroke:none"></path><path d="M4546.52002,1818.359741 c-20.45,-67.3 -53.91,-123.24 -100.36,-167.81 c-46.45,-44.57 -102.41,-74.11 -167.87,-88.6 c-65.48,-14.5 -129.41,-12.26 -191.83,6.71 c-61.88,18.8 -115,52.29 -159.35,100.44 c-44.35,48.17 -73.88,105.61 -88.57,172.33 c-14.7,66.71 -12.56,131.28 6.4,193.7 c19.13,62.95 53.15,117.83 102.04,164.62 c48.91,46.8 104.96,77.65 168.19,92.53 c63.22,14.87 126.59,12.67 190.07,-6.62 c98.78,-30.01 171.48,-89.77 218.11,-179.22 c46.62,-89.48 54.35,-185.5 23.17,-288.08  z m841.01,2781.59 l-235.42,-770.91 l-2242.3,720.82 l151.07,342.59 l-427.23,235.7 c-204.59,109.88 -463.68,30.8 -577.58,-176.24 c-114.27,-207.75 -38.24,-469.74 169.5,-584.02 l48.2,87.62 c-159.43,87.7 -217.78,288.77 -130.08,448.2 c87.6,159.22 286.17,220.38 442.16,136.61 L2932.459961,4849.089844 L2342.090088,3510.209717 C2142.590088,3589.629639 1928.910034,3630.759766 1710,3630.759766 C767.10199,3630.759766 0,2863.659668 0,1920.759766 C0,977.858765 767.10199,210.761749 1710,210.761749 c589.85,0 1138.19,303.117 1450,799.998 v0 c51.67,76.67 83.33,174.17 83.33,174.17 h-110 v0 C2878.330078,652.429749 2292.219971,310.761749 1710,310.761749 c-887.754,0 -1610,722.248 -1610,1609.998 c0,887.76 722.246,1610 1610,1610 c204.86,0 404.87,-38.23 591.72,-112.11 l-399.84,-901.22 h111.45 l380.17,861.49 c79.39,-37.3 156.05,-81.23 229.24,-131.7 c262.88,-181.24 474.31,-433.11 592.52,-728.37 l118.07,1.91 c-125.55,313.6 -374.69,616.34 -653.83,808.79 c-78.41,54.06 -160.54,101.08 -245.63,140.92 l274.87,623.38 l1074.58,-1576.42 h120 L2756.27002,4201.639648 L2869.25,4457.859375 L5122.899902,3733.379639 L4625.759766,2105.449707 c-25.74,75.48 -63.39,137.67 -112.92,186.56 c-49.55,48.89 -110.72,84.4 -183.52,106.53 c-126.08,38.31 -247.72,25.71 -364.94,-37.78 c-117.23,-63.51 -195.26,-159.11 -234.06,-286.78 c-39.64,-130.41 -28.86,-254.62 32.33,-372.63 c61.18,-118.03 154.53,-196.1 280.05,-234.25 c70.62,-21.46 140.15,-26.57 208.57,-15.3 c68.42,11.26 135.37,38.69 200.86,82.3 L4417.5,1423.259766 H4540 l960,3142.51 l-112.47,34.18 " id="path36" style="fill: url(#paramFill); fill-opacity:1; fill-rule:nonzero; stroke:none;"></path><path d="M5878.839844,4841.080078 c-17.49,-22.57 -115.12,-89.31 -204.93,-92.13 c-42.51,-1.31 -119.62,11.32 -201.29,24.7 c-129.28,21.19 -275.82,45.24 -393.42,36.06 c-212.45,-16.5 -445.7,-138.12 -455.53,-143.29 l46.56,-88.5 c2.23,1.17 224.6,117.17 416.72,132.09 c105.61,8.19 245.8,-14.77 369.49,-35.04 c90.36,-14.81 168.38,-27.6 220.59,-25.97 c120.78,3.79 247.04,87.19 280.85,130.83 l-79.04,61.25 " id="path38" style="fill:url(#paramFill);fill-opacity:1;fill-rule:nonzero;stroke:none"></path></g></g></svg>