<?xml version="1.0" encoding="UTF-8"?>
<svg width="114px" height="46px" viewBox="0 0 114 46" version="1.1" xmlns="http://www.w3.org/2000/svg" xmlns:xlink="http://www.w3.org/1999/xlink">
    <!-- Generator: Sketch 64 (93537) - https://sketch.com -->
    <title>Untitled</title>
    <desc>Created with Sketch.</desc>
    <g id="Page-2" stroke="none" stroke-width="1" fill="none" fill-rule="evenodd">
        <path d="M11.6894531,29.4921875 C13.2128906,29.4921875 14.6162109,29.1757812 15.8994141,28.5429688 C17.1826172,27.9101562 18.3398438,26.9667969 19.3710938,25.7128906 L19.3710938,25.7128906 L19.3710938,29 L21.796875,29 L21.796875,9.875 L19.3710938,9.875 L19.3710938,13.390625 C18.4101562,12.0546875 17.2939453,11.0527344 16.0224609,10.3847656 C14.7509766,9.71679688 13.3300781,9.3828125 11.7597656,9.3828125 C9.04101562,9.3828125 6.71484375,10.3613281 4.78125,12.3183594 C2.84765625,14.2753906 1.88085938,16.6308594 1.88085938,19.3847656 C1.88085938,22.1972656 2.83886719,24.5849609 4.75488281,26.5478516 C6.67089844,28.5107422 8.98242188,29.4921875 11.6894531,29.4921875 Z M11.9355469,27.2421875 C10.5996094,27.2421875 9.34863281,26.8994141 8.18261719,26.2138672 C7.01660156,25.5283203 6.08789062,24.5703125 5.39648438,23.3398438 C4.70507812,22.109375 4.359375,20.8203125 4.359375,19.4726562 C4.359375,18.1132812 4.70214844,16.8242188 5.38769531,15.6054688 C6.07324219,14.3867188 6.99609375,13.4404297 8.15625,12.7666016 C9.31640625,12.0927734 10.5820312,11.7558594 11.953125,11.7558594 C14.0859375,11.7558594 15.8818359,12.5 17.3408203,13.9882812 C18.7998047,15.4765625 19.5292969,17.328125 19.5292969,19.5429688 C19.5292969,20.9960938 19.2041016,22.3027344 18.5537109,23.4628906 C17.9033203,24.6230469 16.9746094,25.5429688 15.7675781,26.2226562 C14.5605469,26.9023438 13.2832031,27.2421875 11.9355469,27.2421875 Z M35.4023438,29.4921875 C37.265625,29.4921875 38.8154297,29.1142578 40.0517578,28.3583984 C41.2880859,27.6025391 42.2138672,26.5566406 42.8291016,25.2207031 C43.4443359,23.8847656 43.7519531,21.8984375 43.7519531,19.2617188 L43.7519531,19.2617188 L43.7519531,9.875 L41.2382812,9.875 L41.2382812,18.8046875 C41.2382812,21.1953125 41.1152344,22.7597656 40.8691406,23.4980469 C40.5058594,24.5761719 39.8466797,25.4462891 38.8916016,26.1083984 C37.9365234,26.7705078 36.7734375,27.1015625 35.4023438,27.1015625 C34.03125,27.1015625 32.8505859,26.7617188 31.8603516,26.0820312 C30.8701172,25.4023438 30.1992188,24.4765625 29.8476562,23.3046875 C29.6132812,22.484375 29.4960938,20.984375 29.4960938,18.8046875 L29.4960938,18.8046875 L29.4960938,9.875 L27.0175781,9.875 L27.0175781,19.0859375 C27.0175781,21.8046875 27.3251953,23.8408203 27.9404297,25.1943359 C28.5556641,26.5478516 29.4873047,27.6025391 30.7353516,28.3583984 C31.9833984,29.1142578 33.5390625,29.4921875 35.4023438,29.4921875 Z M58.2011719,29.4921875 C59.7246094,29.4921875 61.1279297,29.1757812 62.4111328,28.5429688 C63.6943359,27.9101562 64.8515625,26.9667969 65.8828125,25.7128906 L65.8828125,25.7128906 L65.8828125,29 L68.3085938,29 L68.3085938,2.4921875 L65.8828125,2.4921875 L65.8828125,13.390625 C64.921875,12.0546875 63.8056641,11.0527344 62.5341797,10.3847656 C61.2626953,9.71679688 59.8417969,9.3828125 58.2714844,9.3828125 C55.5527344,9.3828125 53.2265625,10.3613281 51.2929688,12.3183594 C49.359375,14.2753906 48.3925781,16.6308594 48.3925781,19.3847656 C48.3925781,22.1972656 49.3505859,24.5849609 51.2666016,26.5478516 C53.1826172,28.5107422 55.4941406,29.4921875 58.2011719,29.4921875 Z M58.4472656,27.2421875 C57.1113281,27.2421875 55.8603516,26.8994141 54.6943359,26.2138672 C53.5283203,25.5283203 52.5996094,24.5703125 51.9082031,23.3398438 C51.2167969,22.109375 50.8710938,20.8203125 50.8710938,19.4726562 C50.8710938,18.1132812 51.2138672,16.8242188 51.8994141,15.6054688 C52.5849609,14.3867188 53.5078125,13.4404297 54.6679688,12.7666016 C55.828125,12.0927734 57.09375,11.7558594 58.4648438,11.7558594 C60.5976562,11.7558594 62.3935547,12.5 63.8525391,13.9882812 C65.3115234,15.4765625 66.0410156,17.328125 66.0410156,19.5429688 C66.0410156,20.9960938 65.7158203,22.3027344 65.0654297,23.4628906 C64.4150391,24.6230469 63.4863281,25.5429688 62.2792969,26.2226562 C61.0722656,26.9023438 59.7949219,27.2421875 58.4472656,27.2421875 Z M82.828125,29.4921875 C84.3515625,29.4921875 85.7548828,29.1757812 87.0380859,28.5429688 C88.3212891,27.9101562 89.4785156,26.9667969 90.5097656,25.7128906 L90.5097656,25.7128906 L90.5097656,29 L92.9355469,29 L92.9355469,9.875 L90.5097656,9.875 L90.5097656,13.390625 C89.5488281,12.0546875 88.4326172,11.0527344 87.1611328,10.3847656 C85.8896484,9.71679688 84.46875,9.3828125 82.8984375,9.3828125 C80.1796875,9.3828125 77.8535156,10.3613281 75.9199219,12.3183594 C73.9863281,14.2753906 73.0195312,16.6308594 73.0195312,19.3847656 C73.0195312,22.1972656 73.9775391,24.5849609 75.8935547,26.5478516 C77.8095703,28.5107422 80.1210938,29.4921875 82.828125,29.4921875 Z M83.0742188,27.2421875 C81.7382812,27.2421875 80.4873047,26.8994141 79.3212891,26.2138672 C78.1552734,25.5283203 77.2265625,24.5703125 76.5351562,23.3398438 C75.84375,22.109375 75.4980469,20.8203125 75.4980469,19.4726562 C75.4980469,18.1132812 75.8408203,16.8242188 76.5263672,15.6054688 C77.2119141,14.3867188 78.1347656,13.4404297 79.2949219,12.7666016 C80.4550781,12.0927734 81.7207031,11.7558594 83.0917969,11.7558594 C85.2246094,11.7558594 87.0205078,12.5 88.4794922,13.9882812 C89.9384766,15.4765625 90.6679688,17.328125 90.6679688,19.5429688 C90.6679688,20.9960938 90.3427734,22.3027344 89.6923828,23.4628906 C89.0419922,24.6230469 88.1132812,25.5429688 86.90625,26.2226562 C85.6992188,26.9023438 84.421875,27.2421875 83.0742188,27.2421875 Z M98.5429688,29 L104.308594,20.9667969 L110.162109,29 L113.150391,29 L105.785156,18.9628906 L112.324219,9.875 L109.371094,9.875 L104.308594,16.9589844 L99.2460938,9.875 L96.2929688,9.875 L102.849609,18.9628906 L95.6074219,29 L98.5429688,29 Z" id="audax" fill="#000000" fill-rule="nonzero"></path>
        <path d="M60.0859375,44.21875 C60.7630208,44.21875 61.3867188,44.078125 61.9570312,43.796875 C62.5273438,43.515625 63.0416667,43.0963542 63.5,42.5390625 L63.5,42.5390625 L63.5,44 L64.578125,44 L64.578125,32.21875 L63.5,32.21875 L63.5,37.0625 C63.0729167,36.46875 62.5768229,36.0234375 62.0117188,35.7265625 C61.4466146,35.4296875 60.8151042,35.28125 60.1171875,35.28125 C58.9088542,35.28125 57.875,35.7161458 57.015625,36.5859375 C56.15625,37.4557292 55.7265625,38.5026042 55.7265625,39.7265625 C55.7265625,40.9765625 56.1523438,42.0377604 57.0039062,42.9101562 C57.8554688,43.7825521 58.8828125,44.21875 60.0859375,44.21875 Z M60.1953125,43.21875 C59.6015625,43.21875 59.0455729,43.0664062 58.5273438,42.7617188 C58.0091146,42.4570312 57.5963542,42.03125 57.2890625,41.484375 C56.9817708,40.9375 56.828125,40.3645833 56.828125,39.765625 C56.828125,39.1614583 56.9804688,38.5885417 57.2851562,38.046875 C57.5898438,37.5052083 58,37.0846354 58.515625,36.7851562 C59.03125,36.4856771 59.59375,36.3359375 60.203125,36.3359375 C61.1510417,36.3359375 61.9492188,36.6666667 62.5976562,37.328125 C63.2460938,37.9895833 63.5703125,38.8125 63.5703125,39.796875 C63.5703125,40.4427083 63.4257812,41.0234375 63.1367188,41.5390625 C62.8476562,42.0546875 62.4348958,42.4635417 61.8984375,42.765625 C61.3619792,43.0677083 60.7942708,43.21875 60.1953125,43.21875 Z M69.6484375,44 L69.6484375,40.8828125 C69.6484375,39.7630208 69.7005208,38.9921875 69.8046875,38.5703125 C69.9713542,37.9244792 70.3164062,37.3828125 70.8398438,36.9453125 C71.3632812,36.5078125 71.9557292,36.2890625 72.6171875,36.2890625 C73.1953125,36.2890625 73.6640625,36.4309896 74.0234375,36.7148438 C74.3828125,36.9986979 74.6276042,37.421875 74.7578125,37.984375 C74.8411458,38.3125 74.8828125,38.9661458 74.8828125,39.9453125 L74.8828125,39.9453125 L74.8828125,44 L75.96875,44 L75.96875,39.625 C75.96875,38.46875 75.8515625,37.6171875 75.6171875,37.0703125 C75.3828125,36.5234375 75.0195312,36.0885417 74.5273438,35.765625 C74.0351562,35.4427083 73.4713542,35.28125 72.8359375,35.28125 C72.2109375,35.28125 71.6328125,35.4257812 71.1015625,35.7148438 C70.5703125,36.0039062 70.0859375,36.4401042 69.6484375,37.0234375 L69.6484375,37.0234375 L69.6484375,35.5 L68.5546875,35.5 L68.5546875,44 L69.6484375,44 Z M80.1953125,33.8046875 C80.4453125,33.8046875 80.6588542,33.7161458 80.8359375,33.5390625 C81.0130208,33.3619792 81.1015625,33.1510417 81.1015625,32.90625 C81.1015625,32.65625 81.0130208,32.4427083 80.8359375,32.265625 C80.6588542,32.0885417 80.4453125,32 80.1953125,32 C79.9505208,32 79.7395833,32.0885417 79.5625,32.265625 C79.3854167,32.4427083 79.296875,32.65625 79.296875,32.90625 C79.296875,33.1510417 79.3854167,33.3619792 79.5625,33.5390625 C79.7395833,33.7161458 79.9505208,33.8046875 80.1953125,33.8046875 Z M80.75,44 L80.75,35.5 L79.6484375,35.5 L79.6484375,44 L80.75,44 Z M85.6171875,47.109375 L85.6171875,42.5390625 C86.0755208,43.0963542 86.5885417,43.515625 87.15625,43.796875 C87.7239583,44.078125 88.3463542,44.21875 89.0234375,44.21875 C90.2265625,44.21875 91.2539062,43.7825521 92.1054688,42.9101562 C92.9570312,42.0377604 93.3828125,40.9765625 93.3828125,39.7265625 C93.3828125,38.5026042 92.953125,37.4557292 92.09375,36.5859375 C91.234375,35.7161458 90.2005208,35.28125 88.9921875,35.28125 C88.2994792,35.28125 87.671875,35.4296875 87.109375,35.7265625 C86.546875,36.0234375 86.0494792,36.46875 85.6171875,37.0625 L85.6171875,37.0625 L85.6171875,35.5 L84.53125,35.5 L84.53125,47.109375 L85.6171875,47.109375 Z M88.921875,43.21875 C88.3229167,43.21875 87.7539062,43.0677083 87.2148438,42.765625 C86.6757812,42.4635417 86.2617188,42.0546875 85.9726562,41.5390625 C85.6835938,41.0234375 85.5390625,40.4427083 85.5390625,39.796875 C85.5390625,38.8125 85.8632812,37.9895833 86.5117188,37.328125 C87.1601562,36.6666667 87.9583333,36.3359375 88.90625,36.3359375 C89.515625,36.3359375 90.078125,36.4856771 90.59375,36.7851562 C91.109375,37.0846354 91.5195312,37.5052083 91.8242188,38.046875 C92.1289062,38.5885417 92.28125,39.1614583 92.28125,39.765625 C92.28125,40.3645833 92.1276042,40.9375 91.8203125,41.484375 C91.5130208,42.03125 91.1002604,42.4570312 90.5820312,42.7617188 C90.0638021,43.0664062 89.5104167,43.21875 88.921875,43.21875 Z M97.6328125,44 L97.6328125,41.125 C97.6328125,39.6510417 97.7005208,38.671875 97.8359375,38.1875 C98.0130208,37.5572917 98.2708333,37.0924479 98.609375,36.7929688 C98.9479167,36.4934896 99.2994792,36.34375 99.6640625,36.34375 C99.8203125,36.34375 100.013021,36.3932292 100.242188,36.4921875 L100.242188,36.4921875 L100.8125,35.5703125 C100.46875,35.3776042 100.145833,35.28125 99.84375,35.28125 C99.4427083,35.28125 99.0572917,35.4023438 98.6875,35.6445312 C98.3177083,35.8867188 97.9661458,36.2526042 97.6328125,36.7421875 L97.6328125,36.7421875 L97.6328125,35.5 L96.515625,35.5 L96.515625,44 L97.6328125,44 Z M107.265625,44.21875 C108.5625,44.21875 109.623698,43.7747396 110.449219,42.8867188 C111.27474,41.9986979 111.6875,40.9609375 111.6875,39.7734375 C111.6875,38.5911458 111.296875,37.5677083 110.515625,36.703125 C109.65625,35.7552083 108.572917,35.28125 107.265625,35.28125 C105.953125,35.28125 104.867188,35.7578125 104.007812,36.7109375 C103.226562,37.5755208 102.835938,38.5963542 102.835938,39.7734375 C102.835938,40.9609375 103.248698,41.9986979 104.074219,42.8867188 C104.89974,43.7747396 105.963542,44.21875 107.265625,44.21875 Z M107.265625,43.1796875 C106.661458,43.1796875 106.106771,43.0351562 105.601562,42.7460938 C105.096354,42.4570312 104.695312,42.046875 104.398438,41.515625 C104.101562,40.984375 103.953125,40.4114583 103.953125,39.796875 C103.953125,38.84375 104.278646,38.03125 104.929688,37.359375 C105.580729,36.6875 106.359375,36.3515625 107.265625,36.3515625 C108.166667,36.3515625 108.94401,36.6875 109.597656,37.359375 C110.251302,38.03125 110.578125,38.84375 110.578125,39.796875 C110.578125,40.4114583 110.429688,40.984375 110.132812,41.515625 C109.835938,42.046875 109.434896,42.4570312 108.929688,42.7460938 C108.424479,43.0351562 107.869792,43.1796875 107.265625,43.1796875 Z" id="dnipro" fill="#000000" fill-rule="nonzero"></path>
    </g>
</svg>